
        <svg xmlns="http://www.w3.org/2000/svg" xmlns:xlink="http://www.w3.org/1999/xlink" version="1.1" width="3169.0140845070423" height="2409.551388592496" viewBox="0 0 3169.0140845070423 2409.551388592496">
			
			<g transform="scale(8.450704225352112) translate(10, 10)">
				<defs id="SvgjsDefs15135"/><g id="SvgjsG15136" featureKey="Q4qmbg-0" transform="matrix(13.281875638757718,0,0,13.281875638757718,-1.640931486087024,-70.50746224634261)" fill="#000"><path d="M9.8874 20.0012305 l-0.43238 0 l0 -6.2098 l0.43238 0 l0 6.2098 z M10.542 20.0012305 l-0.43238 0 l0 -6.2098 l0.43238 0 l0 6.2098 z M11.197 20.0012305 l-0.43238 0 l0 -6.2098 l0.43238 0 l0 6.2098 z M11.851 20.0012305 l-0.43238 0 l0 -6.2098 l0.43238 0 l0 6.2098 z M7.49 6.656000000000001 c1.5235 0 2.9972 0.55004 4.1526 1.5546 l-0.28334 0.32566 c-1.0745 -0.931 -2.447 -1.4443 -3.8676 -1.4443 c-3.264 0 -5.921 2.655 -5.921 5.921 c0 3.264 2.6568 5.921 5.921 5.921 l1.3119 0 l0 -0.20424 l-1.3119 0 c-3.1536 0 -5.7186 -2.5648 -5.7186 -5.7186 s2.5648 -5.7186 5.7186 -5.7186 c1.3542 0 2.668 0.4839 3.6982 1.3634 l-0.2815 0.32936 c-0.95308 -0.81324 -2.1656 -1.2604 -3.4186 -1.2604 c-2.9144 0 -5.2862 2.3716 -5.2862 5.2862 s2.3716 5.2862 5.2862 5.2862 l1.3119 0 l0 -0.20424 l-1.3119 0 c-2.8022 0 -5.0818 -2.2796 -5.0818 -5.0818 s2.2796 -5.0818 5.0818 -5.0818 c1.1849 0 2.3386 0.41582 3.2474 1.1739 l-0.27784 0.3312 c-0.8298 -0.69366 -1.8859 -1.0745 -2.9696 -1.0745 c-2.563 0 -4.6496 2.0864 -4.6496 4.6496 s2.0846 4.6496 4.6496 4.6496 l1.3119 0 l0 -0.20424 l-1.3119 0 c-2.4526 0 -4.447 -1.9963 -4.447 -4.447 s1.9945 -4.4452 4.447 -4.4452 c1.0138 0 2.0074 0.35142 2.793 0.98988 l-0.2723 0.33486 c-0.71942 -0.58326 -1.5915 -0.89236 -2.5206 -0.89236 c-2.2134 0 -4.0148 1.8013 -4.0148 4.0148 s1.8013 4.0148 4.0148 4.0148 l1.3119 0 l0 -3.2328 l0.43238 0 l0 6.2079 l-1.7443 0 c-3.8546 0 -6.9898 -3.1352 -6.9898 -6.9898 s3.1352 -6.9898 6.9898 -6.9898 c1.6946 0 3.3284 0.61636 4.6036 1.735 l-0.2852 0.32566 c-1.196 -1.0506 -2.7286 -1.6283 -4.3184 -1.6283 c-3.6154 0 -6.5576 2.942 -6.5576 6.5576 s2.942 6.5576 6.5576 6.5576 l1.3119 0 l0 -0.20238 l-1.3119 0 c-3.5032 0 -6.3532 -2.8518 -6.3532 -6.3552 s2.85 -6.3532 6.3532 -6.3532 z M19.5141 5.6850000000000005 c4.046 0 7.3376 3.2898 7.3376 7.3376 c0 4.046 -3.2916 7.3376 -7.3376 7.3376 s-7.3376 -3.2916 -7.3376 -7.3376 s3.2916 -7.3376 7.3376 -7.3376 z M19.5141 19.9258 c3.8068 0 6.9052 -3.0984 6.9052 -6.9052 s-3.0984 -6.9052 -6.9052 -6.9052 s-6.9052 3.0966 -6.9052 6.9052 s3.0984 6.9052 6.9052 6.9052 z M19.5141 6.332000000000001 c3.689 0 6.69 3.001 6.6882 6.6882 c0 3.6872 -3.001 6.6882 -6.6882 6.6882 s-6.6882 -2.999 -6.6882 -6.6882 c0 -3.6872 2.999 -6.6882 6.6882 -6.6882 z M19.5141 19.27814 c3.4498 0 6.2576 -2.8078 6.2558 -6.2558 c0 -3.4518 -2.8058 -6.2576 -6.2558 -6.2576 s-6.2576 2.8078 -6.2576 6.2576 s2.8078 6.2558 6.2576 6.2558 z M19.5141 6.98 c3.332 0 6.0404 2.7102 6.0404 6.0404 s-2.7102 6.0404 -6.0404 6.0404 s-6.0404 -2.7102 -6.0404 -6.0404 s2.7102 -6.0404 6.0404 -6.0404 z M19.5141 18.6287 c3.093 0 5.608 -2.5152 5.608 -5.608 s-2.5152 -5.608 -5.608 -5.608 s-5.608 2.5152 -5.608 5.608 s2.5152 5.608 5.608 5.608 z M19.5141 7.628 c2.9734 0 5.3928 2.4196 5.3928 5.3928 s-2.4196 5.3928 -5.3928 5.3928 s-5.3928 -2.4196 -5.3928 -5.3928 s2.4196 -5.3928 5.3928 -5.3928 z M19.5141 17.981 c2.736 0 4.9604 -2.2244 4.9604 -4.9604 s-2.2244 -4.9604 -4.9604 -4.9604 s-4.9604 2.2244 -4.9604 4.9604 s2.2244 4.9604 4.9604 4.9604 z M19.5141 8.277 c2.6164 0 4.7452 2.127 4.7434 4.7434 c0 2.6146 -2.127 4.7434 -4.7434 4.7434 s-4.7452 -2.127 -4.7452 -4.7434 c0 -2.6146 2.1288 -4.7434 4.7452 -4.7434 z M19.5141 17.3334 c2.379 0 4.3128 -1.9338 4.3128 -4.3128 s-1.9356 -4.3128 -4.3128 -4.3128 s-4.3128 1.9338 -4.3128 4.3128 s1.9356 4.3128 4.3128 4.3128 z"/></g><g id="SvgjsG15137" featureKey="Q4qmbg-1" transform="matrix(3.948168582750068,0,0,3.948168582750068,3.025915708624966,186.24781861947326)" fill="#000"><path d="M0.93238 20.0012305 l-0.43238 0 l0 -13.982 l0.43238 0 l0 13.982 z M1.5984 20.0012305 l-0.43238 0 l0 -13.982 l0.43238 0 l0 13.982 z M2.2664 20.0012305 l-0.43238 0 l0 -13.982 l0.43238 0 l0 13.982 z M2.9324 20.0012305 l-0.43238 0 l0 -13.982 l0.43238 0 l0 13.982 z M8.6712 6.449999999999999 l-5.0708 0.000019531 l0 0.23551 l5.0708 0 l0 0.43238 l-5.0708 0 l0 0.23367 l5.0708 0 l0 0.43238 l-5.0708 0 l0 0.23551 l5.0708 0 l0 0.43238 l-5.0708 0 l0 0.23367 l5.0708 0 l0 0.43238 l-5.0708 0 l0 2.6863 l3.6891 0 l0 0.43238 l-3.6891 0 l0 0.23551 l3.6891 0 l0 0.43055 l-3.6891 0 l0 0.23551 l3.6891 0 l0 0.43238 l-3.6891 0 l0 0.23367 l3.6891 0 l0 0.43238 l-3.6891 0 l0 0.23551 l3.6891 0 l0 0.43238 l-3.6891 0 l0 1.9963 l5.0708 0 l0 0.43238 l-5.0708 0 l0 0.23367 l5.0708 0 l0 0.43238 l-5.0708 0 l0 0.23551 l5.0708 0 l0 0.43055 l-5.0708 0 l0 0.23551 l5.0708 0 l0 0.43238 l-5.0708 0 l0 0.23367 l5.0708 0 l0 0.43238 l-5.5032 0 l0 -13.98 l5.5032 0 l0 0.43055 z M9.59072 19.99939454 l-0.43238 0 l0 -13.978 l0.43238 0 l0 13.978 z M10.2568 19.99939454 l-0.43238 0 l0 -13.978 l0.43238 0 l0 13.978 z M10.922899999999998 19.99939454 l-0.43238 0 l0 -13.978 l0.43238 0 l0 13.978 z M11.5907 19.99939454 l-0.43238 0 l0 -13.978 l0.43238 0 l0 13.978 z M17.734299999999998 17.3278 l-5.4774 0.000019531 l0 0.23551 l5.4775 0 l0 0.43055 l-5.4775 0 l0 0.23551 l5.4775 0 l0 0.43238 l-5.4775 0 l0 0.23367 l5.4775 0 l0 0.43238 l-5.4775 0 l0 0.23551 l5.4775 0 l0 0.43238 l-5.4775 0 l0 0.0036719 l-0.43238 0 l0 -13.978 l0.43238 0 l0 10.874 l5.4775 0 l0 0.43238 z M18.64538 20.0012305 l-0.43238 0 l0 -13.982 l0.43238 0 l0 13.982 z M19.311400000000003 20.0012305 l-0.43238 0 l0 -13.982 l0.43238 0 l0 13.982 z M19.979400000000002 20.0012305 l-0.43238 0 l0 -13.982 l0.43238 0 l0 13.982 z M20.645400000000002 20.0012305 l-0.43238 0 l0 -13.982 l0.43238 0 l0 13.982 z M26.3842 6.449999999999999 l-5.0708 0.000019531 l0 0.23551 l5.0708 0 l0 0.43238 l-5.0708 0 l0 0.23367 l5.0708 0 l0 0.43238 l-5.0708 0 l0 0.23551 l5.0708 0 l0 0.43238 l-5.0708 0 l0 0.23367 l5.0708 0 l0 0.43238 l-5.0708 0 l0 2.6863 l3.6891 0 l0 0.43238 l-3.6891 0 l0 0.23551 l3.6891 0 l0 0.43055 l-3.6891 0 l0 0.23551 l3.6891 0 l0 0.43238 l-3.6891 0 l0 0.23367 l3.6891 0 l0 0.43238 l-3.6891 0 l0 0.23551 l3.6891 0 l0 0.43238 l-3.6891 0 l0 1.9963 l5.0708 0 l0 0.43238 l-5.0708 0 l0 0.23367 l5.0708 0 l0 0.43238 l-5.0708 0 l0 0.23551 l5.0708 0 l0 0.43055 l-5.0708 0 l0 0.23551 l5.0708 0 l0 0.43238 l-5.0708 0 l0 0.23367 l5.0708 0 l0 0.43238 l-5.5032 0 l0 -13.98 l5.5032 0 l0 0.43055 z M26.369500000000002 6.021000000000001 l0.45998 0 l5.0286 13.978 l-0.45814 0 z M27.039220000000004 6.021000000000001 l0.45998 0 l5.0286 13.978 l-0.45814 0 z M27.709000000000003 6.021000000000001 l0.45998 0 l5.0286 13.978 l-0.45814 0 z M28.378700000000002 6.021000000000001 l0.45998 0 l5.0286 13.978 l-0.45814 0 z M39.1365 6.021000000000001 l0.45998 -0.000039062 l-5.0286 13.978 l-0.48941 0 l-5.0304 -13.978 l0.45998 0 l3.4756 9.6596 l3.4738 -9.6596 l0.45998 0 l-3.7056 10.296 l0.10672 0.29256 l3.8086 -10.589 l0.45998 0 l-4.0404 11.227 l0.10488 0.29256 l4.1454 -11.52 l0.45998 0 l-4.3754 12.158 l0.10672 0.29256 l4.4784 -12.451 l0.45998 0 l-4.6992 13.06 l-0.023926 -0.0073632 l0.11959 0.32936 z M41.8168 6.016 l0.46918 0 l-5.8308 13.983 l-0.46918 0 z M42.4846 6.016 l0.46918 0 l-5.8308 13.983 l-0.46734 0 z M43.154399999999995 6.016 l0.46734 0 l-5.8308 13.983 l-0.46734 0 z M43.822199999999995 6.016 l0.46918 0 l-5.8326 13.983 l-0.46734 0 z M50.345 19.99939454 l-5.5714 -13.54 l-0.11959 0.28886 l5.4518 13.251 l-0.46734 0 l-5.2198 -12.688 l-0.11959 0.28886 l5.1022 12.401 l-0.46734 0 l-4.8702 -11.836 l-0.11959 0.28704 l4.7506 11.549 l-0.46734 0 l-4.5188 -10.984 l-0.11959 0.28704 l4.4012 10.695 l-0.46734 0 l-1.0488 -2.5538 l-6.2778 0 l-1.0653 2.5538 l-0.46918 0 l5.8308 -13.983 l0.5667 0 l5.7534 13.983 l-0.46734 0 z M46.293 17.0132 l-0.092012 -0.22448 l-5.7332 0 l-0.093828 0.22448 l5.9191 0 z M46.022999999999996 16.3564 l-0.093848 -0.22448 l-5.1886 0 l-0.093828 0.22448 l5.3763 0 z M45.751999999999995 15.6994 l-0.093848 -0.22448 l-4.644 0 l-0.093828 0.22448 l4.8317 0 z M45.48179999999999 15.0426 l-0.091992 -0.22448 l-4.1012 0 l-0.093828 0.22448 l4.287 0 z M45.2114 14.3858 l-1.8583 -4.517 l-1.8841 4.517 l3.7424 0 z M57.4777 6.52 l-8.6753 0 l0 -0.43238 l8.6753 0 l0 0.43238 z M57.4777 7.188000000000001 l-8.6753 0 l0 -0.43238 l8.6753 0 l0 0.43238 z M57.4777 7.853999999999999 l-8.6753 0 l0 -0.43238 l8.6753 0 l0 0.43238 z M57.4777 8.522 l-8.6753 0 l0 -0.43238 l8.6753 0 l0 0.43238 z M48.802499999999995 9.188 l0 -0.43238 l8.6771 0 l0 0.43238 l-2.7893 0 l0 10.811 l-0.43055 0 l0 -10.811 l-0.23551 0 l0 10.811 l-0.43238 0 l0 -10.811 l-0.23367 0 l0 10.811 l-0.43238 0 l0 -10.811 l-0.23551 0 l0 10.811 l-0.43238 0 l0 -10.811 l-0.23367 0 l0 10.811 l-0.43238 0 l0 -10.811 l-2.7893 0 z M57.89138 20.0012305 l-0.43238 0 l0 -13.982 l0.43238 0 l0 13.982 z M58.557399999999994 20.0012305 l-0.43238 0 l0 -13.982 l0.43238 0 l0 13.982 z M59.22539999999999 20.0012305 l-0.43238 0 l0 -13.982 l0.43238 0 l0 13.982 z M59.8914 20.0012305 l-0.43238 0 l0 -13.982 l0.43238 0 l0 13.982 z M65.6302 6.449999999999999 l-5.0708 0.000019531 l0 0.23551 l5.0708 0 l0 0.43238 l-5.0708 0 l0 0.23367 l5.0708 0 l0 0.43238 l-5.0708 0 l0 0.23551 l5.0708 0 l0 0.43238 l-5.0708 0 l0 0.23367 l5.0708 0 l0 0.43238 l-5.0708 0 l0 2.6863 l3.6891 0 l0 0.43238 l-3.6891 0 l0 0.23551 l3.6891 0 l0 0.43055 l-3.6891 0 l0 0.23551 l3.6891 0 l0 0.43238 l-3.6891 0 l0 0.23367 l3.6891 0 l0 0.43238 l-3.6891 0 l0 0.23551 l3.6891 0 l0 0.43238 l-3.6891 0 l0 1.9963 l5.0708 0 l0 0.43238 l-5.0708 0 l0 0.23367 l5.0708 0 l0 0.43238 l-5.0708 0 l0 0.23551 l5.0708 0 l0 0.43055 l-5.0708 0 l0 0.23551 l5.0708 0 l0 0.43238 l-5.0708 0 l0 0.23367 l5.0708 0 l0 0.43238 l-5.5032 0 l0 -13.98 l5.5032 0 l0 0.43055 z M76.5628 6.016 l0.46918 0 l-5.8308 13.983 l-0.46918 0 z M77.2306 6.016 l0.46918 0 l-5.8308 13.983 l-0.46734 0 z M77.9004 6.016 l0.46734 0 l-5.8308 13.983 l-0.46734 0 z M78.5682 6.016 l0.46918 0 l-5.8326 13.983 l-0.46734 0 z M85.091 19.99939454 l-5.5714 -13.54 l-0.11959 0.28886 l5.4518 13.251 l-0.46734 0 l-5.2198 -12.688 l-0.11959 0.28886 l5.1022 12.401 l-0.46734 0 l-4.8702 -11.836 l-0.11959 0.28704 l4.7506 11.549 l-0.46734 0 l-4.5188 -10.984 l-0.11959 0.28704 l4.4012 10.695 l-0.46734 0 l-1.0488 -2.5538 l-6.2778 0 l-1.0653 2.5538 l-0.46918 0 l5.8308 -13.983 l0.5667 0 l5.7534 13.983 l-0.46734 0 z M81.039 17.0132 l-0.092012 -0.22448 l-5.7332 0 l-0.093828 0.22448 l5.9191 0 z M80.769 16.3564 l-0.093848 -0.22448 l-5.1886 0 l-0.093828 0.22448 l5.3763 0 z M80.498 15.6994 l-0.093848 -0.22448 l-4.644 0 l-0.093828 0.22448 l4.8317 0 z M80.2278 15.0426 l-0.091992 -0.22448 l-4.1012 0 l-0.093828 0.22448 l4.287 0 z M79.9574 14.3858 l-1.8583 -4.517 l-1.8841 4.517 l3.7424 0 z M86.48088 19.99939454 l-0.43238 0 l0 -13.978 l0.43238 0 l0 13.978 z M87.14880000000001 19.99939454 l-0.43238 0 l0 -13.978 l0.43238 0 l0 13.978 z M87.81490000000001 19.99939454 l-0.43238 0 l0 -13.978 l0.43238 0 l0 13.978 z M88.48270000000001 19.99939454 l-0.43238 0 l0 -13.978 l0.43238 0 l0 13.978 z M89.1487 19.99939454 l-0.43238 0 l0 -13.978 l0.43238 0 l0 13.978 z"/></g>
			</g>
		</svg>
	