<?xml version="1.0" encoding="UTF-8"?> <svg xmlns="http://www.w3.org/2000/svg" viewBox="0 0 3032.28 1821.03"><defs><style>.cls-1{fill:blue;}.cls-2{fill:#09f;}.cls-3{fill:#0cf;}.cls-4{fill:#390;}.cls-5{fill:#0c0;}.cls-6{fill:#9f6;}.cls-7{fill:#f30;}.cls-8{fill:#f60;}.cls-9{fill:#f90;}.cls-10{fill:none;}.cls-11{fill:#231f20;}</style></defs><title>Artboard 1</title><g id="BLUE_CUBE" data-name="BLUE CUBE"><polygon class="cls-1" points="401.16 1582 128.57 1423.52 128.57 1106.55 401.16 1265.03 401.16 1582"></polygon><polygon class="cls-2" points="675.66 1423.52 401.16 1582 401.16 1265.03 673.75 1106.55 675.66 1423.52"></polygon><polyline class="cls-3" points="673.75 1106.55 401.16 1265.03 128.57 1106.55 400.96 948.07 673.75 1106.55"></polyline></g><g id="GREEN_CUBE" data-name="GREEN CUBE"><polygon class="cls-4" points="398.66 1184.7 126.07 1026.22 126.07 709.25 398.66 867.74 398.66 1184.7"></polygon><polygon class="cls-5" points="673.16 1026.22 398.66 1184.7 398.66 867.74 671.25 709.25 673.16 1026.22"></polygon><polyline class="cls-6" points="671.25 709.25 398.66 867.74 126.07 709.25 398.46 550.77 671.25 709.25"></polyline></g><g id="ORANGE_CUBE" data-name="ORANGE CUBE"><polygon class="cls-7" points="400.58 794 127.98 635.51 127.98 318.55 400.58 477.03 400.58 794"></polygon><polygon class="cls-8" points="675.08 635.51 400.58 794 400.58 477.03 673.17 318.55 675.08 635.51"></polygon><polyline class="cls-9" points="673.17 318.55 400.58 477.03 127.98 318.55 400.38 160.06 673.17 318.55"></polyline><rect class="cls-10" x="48" y="77.95" width="2964" height="1580.05"></rect></g><g id="MINDSCAPE"><polygon class="cls-11" points="126.2 1025.84 126.25 709.43 398.41 863.4 671.25 709.25 673.16 1026.22 634.39 1048.63 632.57 777.15 417.82 896.98 398.51 907.9 379.04 897 165.11 777.31 164.97 1048.24 126.2 1025.84"></polygon><rect class="cls-11" x="709.86" y="711.38" width="39.08" height="349.3"></rect><polygon class="cls-11" points="784.64 1060.67 783.76 710.48 1048.89 968 1048.89 710.89 1087.97 710.89 1087.97 1060.43 823.07 803.13 823.72 1060.57 784.64 1060.67"></polygon><polygon class="cls-11" points="2362.64 1060.83 2202.39 786.86 2042.14 1060.83 1997.67 1061.11 2202.39 709.46 2406.99 1061.11 2362.64 1060.83"></polygon><polygon class="cls-11" points="2948.18 891.44 2948.18 852.36 2684.05 852.36 2684.05 1050.1 2684.42 1050.1 2684.42 1061.83 2948.18 1061.83 2948.18 1022.75 2723.13 1022.75 2723.13 891.44 2948.18 891.44"></polygon><rect class="cls-11" x="2684.42" y="710.81" width="263.41" height="39.08"></rect><path class="cls-11" d="M1244.92,1061.1h-123v-39l39.4-.36h83.63a132.74,132.74,0,0,0,52.81-10.6,147.82,147.82,0,0,0,43.4-29.25,137.1,137.1,0,0,0,28.7-42.85,132.74,132.74,0,0,0,10.6-52.81,138.66,138.66,0,0,0-2.67-27.1,123.25,123.25,0,0,0-7.89-25.17,133.68,133.68,0,0,0-29-43.67,147.81,147.81,0,0,0-43.2-29,132.64,132.64,0,0,0-52.73-10.57l-194.84-.39v-39.4l194.84.39a172,172,0,0,1,68.39,13.81,187.8,187.8,0,0,1,55.12,37,173.1,173.1,0,0,1,37.69,56.36,162.35,162.35,0,0,1,10.28,32.9,178.15,178.15,0,0,1,3.43,34.83,171.93,171.93,0,0,1-13.81,68.4A176.33,176.33,0,0,1,1368.7,1010a188,188,0,0,1-55.3,37.26A171.93,171.93,0,0,1,1244.92,1061.1Z"></path><path class="cls-11" d="M1656.68,1060.79H1438l-.11-38.1h180.67V977.33c0-42.37-32.33-59.9-85.57-83.76-44.47-19.92-94.88-42.49-94.88-97.91V710.89H1657.2l-.47,38.08-180.49,0v46.67c0,29.25,27.49,43.05,72.34,63.14,48.16,21.57,108.1,48.42,108.1,118.53Z"></path><path class="cls-11" d="M2042.14,1060.86H1849.79a172,172,0,0,1-68.41-13.81,187.71,187.71,0,0,1-55.15-37,173,173,0,0,1-37.7-56.36,162.32,162.32,0,0,1-10.28-32.93,178.49,178.49,0,0,1-3.44-34.84,171.94,171.94,0,0,1,13.82-68.43A176.76,176.76,0,0,1,1726,762a188.11,188.11,0,0,1,55.34-37.28,172.1,172.1,0,0,1,68.5-13.85h123.07v39.43l-39.28-.15h-83.79a132.86,132.86,0,0,0-52.89,10.62,148.39,148.39,0,0,0-43.46,29.28A137.47,137.47,0,0,0,1724.7,833a132.92,132.92,0,0,0-10.61,52.89,139.29,139.29,0,0,0,2.67,27.14,124.71,124.71,0,0,0,7.9,25.22A134.14,134.14,0,0,0,1753.73,982a148,148,0,0,0,43.25,29,132.9,132.9,0,0,0,52.81,10.58h192.35Z"></path><path class="cls-11" d="M2469.65,1061.1h-39.07V926.86h91.5a86.72,86.72,0,0,0,34.47-6.9A97.14,97.14,0,0,0,2585,900.74a89.6,89.6,0,0,0,18.67-28,86.74,86.74,0,0,0,6.91-34.48,90.54,90.54,0,0,0-1.75-17.72,80.17,80.17,0,0,0-5.12-16.36,87.48,87.48,0,0,0-19-28.61,96.83,96.83,0,0,0-28.29-19,86.55,86.55,0,0,0-34.39-6.87h-91.65V710.69h91.65A125.63,125.63,0,0,1,2572,720.78a136.41,136.41,0,0,1,40.12,26.93,126.36,126.36,0,0,1,27.58,41.2,118.65,118.65,0,0,1,7.49,24,129.61,129.61,0,0,1,2.51,25.37,125.48,125.48,0,0,1-10.1,49.93,128.42,128.42,0,0,1-27.22,40.4,136.42,136.42,0,0,1-40.31,27.17,125.56,125.56,0,0,1-50,10.13h-52.43Z"></path></g></svg> 