<svg xmlns="http://www.w3.org/2000/svg" xmlns:xlink="http://www.w3.org/1999/xlink" width="96" zoomAndPan="magnify" viewBox="0 0 72 72" height="96" preserveAspectRatio="xMidYMid meet" version="1.2"><g id="12460409f7"><path style="fill:none;stroke-width:2;stroke-linecap:round;stroke-linejoin:round;stroke:#2563e6;stroke-opacity:1;stroke-miterlimit:4;" d="M 12.000373 5.001086 C 12.000373 4.799721 11.981195 4.601553 11.94284 4.406581 C 11.904485 4.210011 11.845354 4.018236 11.768644 3.834451 C 11.691934 3.649068 11.596046 3.474871 11.484177 3.310264 C 11.372308 3.144058 11.246056 2.990638 11.102224 2.851601 C 10.95999 2.710965 10.804972 2.586311 10.637168 2.477638 C 10.469364 2.367367 10.291972 2.276274 10.106589 2.20276 C 9.921206 2.129246 9.72943 2.074909 9.53286 2.039751 C 9.33629 2.002994 9.136524 1.987012 8.938356 1.991807 C 8.736991 1.996601 8.538823 2.018975 8.34545 2.063723 C 8.14888 2.10847 7.9603 2.169199 7.778113 2.252302 C 7.595927 2.333807 7.42173 2.431292 7.260319 2.546358 C 7.09731 2.663021 6.947086 2.794068 6.809647 2.941096 C 6.673806 3.086526 6.553946 3.244741 6.446871 3.414142 C 6.342993 3.583544 6.256694 3.764133 6.186376 3.951114 C 6.117656 4.138095 6.066516 4.331469 6.036152 4.528039 C 6.004189 4.726207 5.9946 4.925973 6.002591 5.124142 C 5.855563 5.162497 5.711731 5.207244 5.571096 5.261581 C 5.428862 5.317515 5.293021 5.378244 5.158778 5.448562 C 5.024535 5.51888 4.893489 5.59559 4.767236 5.678693 C 4.642582 5.763394 4.522722 5.854487 4.407657 5.951973 C 4.292592 6.051057 4.183919 6.154935 4.078442 6.265206 C 3.976162 6.375477 3.880274 6.492141 3.789181 6.612001 C 3.698087 6.733459 3.614985 6.861309 3.539872 6.990758 C 3.463162 7.121804 3.396041 7.256047 3.335312 7.395084 C 3.272985 7.534122 3.221845 7.676355 3.177097 7.818589 C 3.132349 7.964019 3.095592 8.109449 3.068424 8.258075 C 3.039658 8.406701 3.02048 8.556925 3.009293 8.707149 C 2.999705 8.86057 2.996508 9.010794 3.002901 9.162616 C 3.009293 9.31284 3.023676 9.463065 3.04605 9.613289 C 3.070022 9.761915 3.100387 9.910541 3.141938 10.055971 C 3.180293 10.201401 3.229835 10.345232 3.284172 10.48427 C 3.341704 10.624905 3.40563 10.762344 3.477545 10.894989 C 3.349695 10.99727 3.231433 11.107541 3.117966 11.222606 C 3.006097 11.340867 2.90062 11.463924 2.803135 11.593372 C 2.707247 11.722821 2.617751 11.858662 2.534649 11.999297 C 2.453144 12.139933 2.381228 12.285362 2.317303 12.433988 C 2.254976 12.584213 2.20064 12.736035 2.155892 12.892652 C 2.111144 13.04767 2.074387 13.205885 2.050415 13.365698 C 2.024845 13.525511 2.007266 13.688521 2.000873 13.849932 C 1.996079 14.012941 1.999275 14.174352 2.01206 14.335763 C 2.028041 14.497174 2.050415 14.658585 2.082378 14.8168 C 2.117537 14.976613 2.159088 15.131632 2.211826 15.285052 C 2.264565 15.440071 2.325294 15.588697 2.395611 15.735725 C 2.465929 15.881155 2.545836 16.023389 2.633733 16.160828 C 2.720032 16.296669 2.81592 16.426117 2.919798 16.55237 C 3.023676 16.677024 3.133947 16.795285 3.252209 16.907154 C 3.370471 17.017425 3.493527 17.122902 3.624573 17.21879 C 3.75562 17.314678 3.891461 17.404173 4.033695 17.484079 C 3.998536 17.754163 3.990545 18.025845 4.011321 18.299126 C 4.032097 18.570808 4.08004 18.839294 4.155153 19.101387 C 4.231863 19.36348 4.334143 19.615985 4.460395 19.858901 C 4.586648 20.100218 4.73847 20.327153 4.911068 20.538106 C 5.085264 20.749059 5.278638 20.939237 5.491189 21.111835 C 5.705339 21.282835 5.932273 21.431461 6.175189 21.556115 C 6.419703 21.680769 6.672207 21.779853 6.937497 21.850171 C 7.19959 21.923685 7.468076 21.97003 7.741356 21.986012 C 8.013038 22.005189 8.286319 21.994002 8.554805 21.957245 C 8.826487 21.91889 9.091776 21.854965 9.347477 21.760675 C 9.606374 21.669582 9.850888 21.55132 10.084215 21.410685 C 10.317542 21.268451 10.53329 21.102246 10.734654 20.915265 C 10.93442 20.728283 11.111813 20.523723 11.270028 20.301583 C 11.426644 20.077844 11.560887 19.839723 11.667962 19.588817 C 11.778233 19.339508 11.859738 19.079013 11.915672 18.812125 C 11.973205 18.54364 12.000373 18.273556 12.000373 18.000275 Z M 12.000373 5.001086 " transform="matrix(2.444263,0,0,2.444263,6.449183,5.990876)"/><path style="fill:none;stroke-width:2;stroke-linecap:round;stroke-linejoin:round;stroke:#2563e6;stroke-opacity:1;stroke-miterlimit:4;" d="M 12.000373 5.001086 C 12.000373 4.799721 12.017952 4.601553 12.057906 4.406581 C 12.096261 4.210011 12.155392 4.018236 12.232102 3.834451 C 12.308812 3.649068 12.403102 3.474871 12.516569 3.310264 C 12.62684 3.144058 12.75469 2.990638 12.898522 2.851601 C 13.040756 2.710965 13.195774 2.586311 13.36198 2.477638 C 13.531382 2.367367 13.707176 2.276274 13.892559 2.20276 C 14.07954 2.129246 14.269718 2.074909 14.467886 2.039751 C 14.664456 2.002994 14.862624 1.987012 15.06239 1.991807 C 15.262156 1.996601 15.458726 2.018975 15.655296 2.063723 C 15.850268 2.10847 16.038848 2.169199 16.222633 2.252302 C 16.404819 2.333807 16.577417 2.431292 16.740427 2.546358 C 16.903436 2.663021 17.05366 2.794068 17.189501 2.941096 C 17.32694 3.086526 17.4468 3.244741 17.552277 3.414142 C 17.657753 3.583544 17.744052 3.764133 17.81437 3.951114 C 17.88309 4.138095 17.93423 4.331469 17.964594 4.528039 C 17.994959 4.726207 18.006146 4.925973 17.998155 5.124142 C 18.143585 5.162497 18.287417 5.207244 18.428052 5.261581 C 18.568687 5.317515 18.707725 5.378244 18.841968 5.448562 C 18.976211 5.51888 19.107257 5.59559 19.231911 5.678693 C 19.356566 5.763394 19.478023 5.854487 19.593089 5.951973 C 19.708154 6.051057 19.816827 6.154935 19.920705 6.265206 C 20.024584 6.375477 20.120472 6.492141 20.209967 6.612001 C 20.30106 6.733459 20.384163 6.861309 20.460873 6.990758 C 20.535986 7.121804 20.604705 7.256047 20.665434 7.395084 C 20.724565 7.534122 20.778901 7.676355 20.823649 7.818589 C 20.866798 7.964019 20.903555 8.109449 20.932322 8.258075 C 20.961088 8.406701 20.980266 8.556925 20.989854 8.707149 C 21.001041 8.86057 21.004238 9.010794 20.997845 9.162616 C 20.991453 9.31284 20.977069 9.463065 20.953098 9.613289 C 20.930724 9.761915 20.898761 9.910541 20.858808 10.055971 C 20.818855 10.201401 20.770911 10.345232 20.714976 10.48427 C 20.659042 10.624905 20.595116 10.762344 20.523201 10.894989 C 20.647855 10.99727 20.767714 11.107541 20.881182 11.222606 C 20.993051 11.340867 21.098527 11.463924 21.196013 11.593372 C 21.293499 11.722821 21.382994 11.858662 21.464499 11.999297 C 21.544406 12.139933 21.61792 12.285362 21.681845 12.433988 C 21.744172 12.584213 21.800106 12.736035 21.843256 12.892652 C 21.889602 13.04767 21.924761 13.205885 21.950331 13.365698 C 21.975901 13.525511 21.991882 13.688521 21.998275 13.849932 C 22.004667 14.012941 22.001471 14.174352 21.98549 14.335763 C 21.972704 14.497174 21.950331 14.658585 21.915172 14.8168 C 21.883209 14.976613 21.84006 15.131632 21.78892 15.285052 C 21.736181 15.440071 21.673854 15.588697 21.603536 15.735725 C 21.533219 15.881155 21.45491 16.023389 21.367013 16.160828 C 21.279116 16.296669 21.184826 16.426117 21.07935 16.55237 C 20.977069 16.677024 20.8652 16.795285 20.748537 16.907154 C 20.630275 17.017425 20.505621 17.122902 20.376173 17.21879 C 20.245126 17.314678 20.107687 17.404173 19.967051 17.484079 C 20.00221 17.754163 20.010201 18.025845 19.987827 18.299126 C 19.967051 18.570808 19.920705 18.839294 19.845593 19.101387 C 19.768883 19.36348 19.666603 19.615985 19.538752 19.858901 C 19.4125 20.100218 19.262276 20.327153 19.08808 20.538106 C 18.913884 20.749059 18.72051 20.939237 18.509557 21.111835 C 18.295407 21.282835 18.068473 21.431461 17.823959 21.556115 C 17.581043 21.680769 17.32694 21.779853 17.063249 21.850171 C 16.801156 21.923685 16.53267 21.97003 16.25939 21.986012 C 15.986109 22.005189 15.714427 21.994002 15.442745 21.957245 C 15.174259 21.91889 14.90897 21.854965 14.651671 21.760675 C 14.394372 21.669582 14.149858 21.55132 13.916531 21.410685 C 13.683204 21.268451 13.465858 21.102246 13.266092 20.915265 C 13.066326 20.728283 12.888933 20.523723 12.730718 20.301583 C 12.574102 20.077844 12.439859 19.839723 12.331186 19.588817 C 12.222513 19.339508 12.13941 19.079013 12.083476 18.812125 C 12.027541 18.54364 12.000373 18.273556 12.000373 18.000275 Z M 12.000373 5.001086 " transform="matrix(2.444263,0,0,2.444263,6.449183,5.990876)"/><path style="fill:none;stroke-width:2;stroke-linecap:round;stroke-linejoin:round;stroke:#2563e6;stroke-opacity:1;stroke-miterlimit:4;" d="M 15.000063 12.999726 C 14.581353 12.8511 14.189811 12.648138 13.833428 12.384446 C 13.473849 12.119157 13.160615 11.810718 12.893728 11.454335 C 12.625242 11.09955 12.415887 10.711204 12.264064 10.294092 C 12.112242 9.875382 12.024345 9.443887 12.000373 8.999607 C 11.976401 9.443887 11.886906 9.875382 11.735083 10.294092 C 11.583261 10.711204 11.372308 11.09955 11.107018 11.454335 C 10.838532 11.810718 10.526897 12.119157 10.167318 12.384446 C 9.807739 12.648138 9.419393 12.8511 8.999085 12.999726 " transform="matrix(2.444263,0,0,2.444263,6.449183,5.990876)"/><path style="fill:none;stroke-width:2;stroke-linecap:round;stroke-linejoin:round;stroke:#2563e6;stroke-opacity:1;stroke-miterlimit:4;" d="M 17.598623 6.500132 C 17.844735 6.075029 17.977379 5.616366 17.998155 5.124142 " transform="matrix(2.444263,0,0,2.444263,6.449183,5.990876)"/><path style="fill:none;stroke-width:2;stroke-linecap:round;stroke-linejoin:round;stroke:#2563e6;stroke-opacity:1;stroke-miterlimit:4;" d="M 6.002591 5.124142 C 6.021768 5.616366 6.156011 6.075029 6.400525 6.500132 " transform="matrix(2.444263,0,0,2.444263,6.449183,5.990876)"/><path style="fill:none;stroke-width:2;stroke-linecap:round;stroke-linejoin:round;stroke:#2563e6;stroke-opacity:1;stroke-miterlimit:4;" d="M 3.477545 10.896587 C 3.66133 10.746363 3.854704 10.613718 4.062461 10.500251 " transform="matrix(2.444263,0,0,2.444263,6.449183,5.990876)"/><path style="fill:none;stroke-width:2;stroke-linecap:round;stroke-linejoin:round;stroke:#2563e6;stroke-opacity:1;stroke-miterlimit:4;" d="M 19.938285 10.500251 C 20.146042 10.613718 20.339416 10.746363 20.523201 10.896587 " transform="matrix(2.444263,0,0,2.444263,6.449183,5.990876)"/><path style="fill:none;stroke-width:2;stroke-linecap:round;stroke-linejoin:round;stroke:#2563e6;stroke-opacity:1;stroke-miterlimit:4;" d="M 5.999395 18.000275 C 5.299414 18.000275 4.64418 17.827677 4.033695 17.484079 " transform="matrix(2.444263,0,0,2.444263,6.449183,5.990876)"/><path style="fill:none;stroke-width:2;stroke-linecap:round;stroke-linejoin:round;stroke:#2563e6;stroke-opacity:1;stroke-miterlimit:4;" d="M 19.967051 17.484079 C 19.356566 17.827677 18.701332 18.000275 17.999753 18.000275 " transform="matrix(2.444263,0,0,2.444263,6.449183,5.990876)"/></g></svg>